<svg width="200" height="100" viewBox="0 0 200 100" fill="none" xmlns="http://www.w3.org/2000/svg">
<rect x="85" width="115" height="99.9414" rx="15" fill="#002C1B"/>
<rect width="115" height="99.9414" rx="15" fill="#BDFF72"/>
<path d="M31.7524 43.3276C31.0294 39.134 27.6552 36.7239 23.4134 36.7239C17.6773 36.7239 13.6765 41.1103 13.6765 49.0155C13.6765 57.0172 17.7255 61.3072 23.4134 61.3072C27.5588 61.3072 30.933 58.9935 31.7524 54.8962H38.0669C37.1029 61.5964 31.6078 66.9469 23.317 66.9469C14.1103 66.9469 7.36192 60.2467 7.36192 49.0155C7.36192 37.7361 14.2067 31.0842 23.317 31.0842C31.0294 31.0842 37.0065 35.567 38.0669 43.3276H31.7524ZM41.9713 59.0899C41.9713 53.2092 46.8398 51.4739 51.7082 51.1846C53.5158 51.0641 57.2756 50.8472 58.4084 50.799V48.7263C58.4084 46.1234 56.7213 44.6291 53.6845 44.6291C50.937 44.6291 49.2499 45.8824 48.7679 47.7623H42.839C43.2728 43.3276 47.2736 39.9535 53.8291 39.9535C58.794 39.9535 64.5301 41.978 64.5301 48.9673V66.4648H58.6494V62.8497H58.4566C57.2997 65.067 54.8414 66.9951 50.7442 66.9951C45.7311 66.9951 41.9713 64.2475 41.9713 59.0899ZM47.9002 59.0417C47.9002 61.3072 49.7319 62.464 52.3349 62.464C56.0465 62.464 58.4566 60.0057 58.4566 57.0654V54.8962L52.6723 55.2819C49.7319 55.5229 47.9002 56.7279 47.9002 59.0417ZM70.3144 66.4648V40.2909H76.2915V44.6291H76.5807C77.4966 41.6405 80.0513 39.9053 83.0399 39.9053C83.7147 39.9053 84.6788 39.9535 85.2572 40.0499V45.7378C84.727 45.545 83.4255 45.3521 82.4132 45.3521C78.9909 45.3521 76.4843 47.7141 76.4843 51.04V66.4648H70.3144ZM97.7898 66.9469C91.6199 66.9469 86.9925 62.0302 86.9925 53.402C86.9925 44.6773 91.7645 39.9535 97.838 39.9535C102.465 39.9535 104.394 42.701 105.309 44.5809H105.55V31.5662H111.672V66.4648H105.647V62.3194H105.309C104.345 64.2475 102.321 66.9469 97.7898 66.9469ZM99.4769 61.8856C103.43 61.8856 105.695 58.4632 105.695 53.3538C105.695 48.2925 103.478 44.9665 99.4769 44.9665C95.3797 44.9665 93.2588 48.4853 93.2588 53.3538C93.2588 58.3186 95.4279 61.8856 99.4769 61.8856Z" fill="#002C1B"/>
<path d="M133.749 49.4012V54.4624H118.035V49.4012H133.749ZM171.202 49.0155C171.202 60.2949 164.358 66.9469 155.199 66.9469C146.041 66.9469 139.196 60.2467 139.196 49.0155C139.196 37.7361 146.041 31.0842 155.199 31.0842C164.358 31.0842 171.202 37.7361 171.202 49.0155ZM164.888 49.0155C164.888 41.0621 160.887 36.7239 155.199 36.7239C149.511 36.7239 145.51 41.0621 145.51 49.0155C145.51 56.9689 149.511 61.3072 155.199 61.3072C160.887 61.3072 164.888 56.9689 164.888 49.0155ZM183.976 31.5662L183.446 56.1977H177.999L177.42 31.5662H183.976ZM180.746 66.8505C178.674 66.8505 176.987 65.1634 176.987 63.0907C176.987 61.0662 178.674 59.3791 180.746 59.3791C182.723 59.3791 184.458 61.0662 184.458 63.0907C184.458 65.1634 182.723 66.8505 180.746 66.8505Z" fill="#BDFF72"/>
</svg>
